<svg width="30" height="30" viewBox="0 0 30 30" fill="none" xmlns="http://www.w3.org/2000/svg">
<g id="delete-svgrepo-com (1) 1">
<g id="Group">
<path id="Vector" d="M20.5678 13.6373V8.11839H21.8363V2.41015H15.5963V0H8.41452V2.41015H2.17452V8.11839H3.44302V27.463H13.6876C15.183 29.0255 17.288 30 19.6164 30C24.1429 30 27.8255 26.3174 27.8255 21.7909C27.8255 17.5862 24.6477 14.1104 20.5678 13.6373ZM18.665 13.6373C17.5201 13.7701 16.4463 14.1391 15.4938 14.6945V8.11839H18.665V13.6373ZM10.3173 1.90275H13.6935V2.41015H10.3173V1.90275ZM4.07727 4.3129H19.9335V6.21564H4.07727V4.3129ZM5.34577 8.11839H8.51702V25.5603H5.34577V8.11839ZM10.4198 25.5603V8.11839H13.591V16.2221C12.2365 17.6865 11.4074 19.6436 11.4074 21.7909C11.4074 23.1489 11.7391 24.4308 12.3254 25.5603H10.4198ZM19.6164 28.0972C16.139 28.0972 13.3101 25.2682 13.3101 21.7909C13.3101 18.3136 16.1391 15.4846 19.6164 15.4846C23.0937 15.4846 25.9227 18.3136 25.9227 21.7909C25.9227 25.2682 23.0937 28.0972 19.6164 28.0972Z" fill="#C41616"/>
<path id="Vector_2" d="M21.7071 18.3545L19.6164 20.4452L17.5258 18.3545L16.1803 19.6999L18.271 21.7906L16.1803 23.8812L17.5258 25.2266L19.6164 23.136L21.7071 25.2266L23.0525 23.8812L20.9618 21.7906L23.0525 19.6999L21.7071 18.3545Z" fill="#C41616"/>
</g>
</g>
</svg>
