<svg width="30" height="30" viewBox="0 0 30 30" fill="none" xmlns="http://www.w3.org/2000/svg">
<g id="edit-svgrepo-com (1) 1" clip-path="url(#clip0_1437_484)">
<g id="Group">
<g id="Group_2">
<g id="Group_3">
<path id="Vector" d="M14.3001 19.9141H-4.45683C-5.30802 19.9141 -6 20.606 -6 21.4572C-6 22.3084 -5.30802 23.0004 -4.45683 23.0004H16.4189L14.3001 19.9141Z" fill="black"/>
</g>
<g id="Group_4">
<g id="Group_5">
<path id="Vector_2" d="M13.4366 1.4082H-4.45683C-5.30802 1.4082 -6 2.10018 -6 2.95138C-6 3.80257 -5.30802 4.49455 -4.45683 4.49455H13.4366V1.4082Z" fill="black"/>
</g>
<g id="Group_6">
<path id="Vector_3" d="M13.4366 7.5752H-4.45683C-5.30802 7.5752 -6 8.26717 -6 9.11837C-6 9.96956 -5.30802 10.6615 -4.45683 10.6615H13.4366V7.5752Z" fill="black"/>
</g>
<g id="Group_7">
<path id="Vector_4" d="M13.4366 13.7412H-4.45683C-5.30802 13.7412 -6 14.4332 -6 15.2844C-6 16.1356 -5.30802 16.8276 -4.45683 16.8276H13.4366V13.7412Z" fill="black"/>
</g>
</g>
<g id="Group_8">
<path id="Vector_5" d="M15.4391 -1.10938V18.0517L18.5499 22.5465C18.6969 22.7608 19.0153 22.7608 19.1684 22.5465L22.2792 18.0517V-1.10938H15.4391Z" fill="black"/>
</g>
</g>
</g>
</g>
<defs>
<clipPath id="clip0_1437_484">
<rect width="30" height="30" fill="white"/>
</clipPath>
</defs>
</svg>
